<svg width="20" height="21" viewBox="0 0 20 21" fill="none" xmlns="http://www.w3.org/2000/svg">
<path d="M10 2.375C5.51992 2.375 1.875 6.01992 1.875 10.5C1.875 14.9801 5.51992 18.625 10 18.625C14.4801 18.625 18.125 14.9801 18.125 10.5C18.125 6.01992 14.4801 2.375 10 2.375ZM14.2285 7.77695L8.97852 14.027C8.92093 14.0955 8.84927 14.151 8.76839 14.1894C8.68752 14.2279 8.59932 14.2486 8.50977 14.25H8.49922C8.41162 14.25 8.325 14.2315 8.24499 14.1959C8.16497 14.1602 8.09335 14.1081 8.03477 14.043L5.78477 11.543C5.72762 11.4824 5.68317 11.4109 5.65403 11.3329C5.62488 11.2549 5.61162 11.1718 5.61504 11.0886C5.61846 11.0054 5.63848 10.9237 5.67392 10.8483C5.70936 10.7729 5.75952 10.7054 5.82143 10.6496C5.88335 10.5939 5.95578 10.5511 6.03447 10.5238C6.11315 10.4965 6.19651 10.4852 6.27963 10.4905C6.36276 10.4959 6.44398 10.5178 6.51851 10.5549C6.59305 10.5921 6.6594 10.6438 6.71367 10.707L8.48281 12.6727L13.2715 6.97305C13.3789 6.84886 13.5309 6.77193 13.6945 6.75889C13.8582 6.74584 14.0205 6.79774 14.1462 6.90335C14.2719 7.00896 14.351 7.1598 14.3664 7.32327C14.3818 7.48675 14.3323 7.64971 14.2285 7.77695Z" fill="#00B951"/>
</svg>
